<svg xmlns="http://www.w3.org/2000/svg" width="680" height="480" viewBox="0 0 680 480">
  <g fill="none" fill-rule="evenodd">
    <rect width="680" height="480" fill="#DEF0FB"/>
    <g transform="translate(40 53)">
      <g fill="#89CEF8" transform="translate(43.65)">
        <path d="M370.929067,339.76242 C329.520195,385.622989 231.546694,408.584884 184.5708,375.051327 C137.594907,341.51777 68.2406384,332.940875 33.7722103,304.764119 C-0.696217771,276.587364 -23.4580895,164.284325 40.5883771,155.16478 C83.2860215,149.085083 111.283166,118.529548 124.57981,63.4981737 C138.159731,10.1933952 167.135816,-1.25686123 211.508067,29.1474044 C278.066443,74.7538028 331.573477,-12.5146668 385.694107,1.55463728 C439.814736,15.6239413 455.747996,80.8657769 449.272944,174.278413 C442.797892,267.691049 412.33794,293.901851 370.929067,339.76242 Z" opacity=".1"/>
        <path d="M155.007693,382.92704 C100.593058,372.269171 76.8059049,319.520302 42.2976156,291.286867 C7.78932623,263.053432 6.07773256,131.078376 70.1982662,121.940486 C134.3188,112.802596 180.786731,-32.6018505 247.422079,13.0962874 C314.057427,58.7944252 382.348332,-16.6381622 435.029209,29.1207984 C483.269388,71.0225388 483.424566,157.470737 450.344157,248.555843 C417.263749,339.64095 208.642252,393.432119 155.007693,382.92704 Z" opacity=".1"/>
      </g>
      <g fill="#FFF" fill-rule="nonzero" transform="translate(0 2.06)">
        <path d="M123.324883,41.0065572 C121.552855,41.0065572 119.835693,41.1911638 118.170271,41.5385566 C118.170271,41.4485046 118.180689,41.3581063 118.180689,41.2711715 C118.180689,18.4675842 99.6502695,0 76.8007275,0 C57.5070479,0 41.2924537,13.1773764 36.7274763,31.0038597 C34.6220862,30.5473654 32.4455094,30.2959125 30.2053854,30.2959125 C13.5272095,30.2969516 0,43.7832756 0,60.4349268 C0,77.0730703 13.5272095,90.5562771 30.2071217,90.5562771 L123.326272,90.5562771 C137.038567,90.5562771 148.162444,79.4698385 148.162444,65.787132 C148.161055,52.0926494 137.037178,41.0065572 123.324883,41.0065572 Z" opacity=".8"/>
        <path d="M118.226981,39.3114623 C116.528204,39.3114623 114.882025,39.4884377 113.285447,39.8214704 C113.295434,17.7041866 95.5310096,0 73.6260029,0 C55.1298695,0 39.5855406,12.632661 35.2092664,29.722248 C33.1909072,29.2846238 31.1043039,29.0435653 28.9567803,29.0435653 C12.968033,29.0445614 0,41.973399 0,57.9367181 C0,73.8870879 12.968033,86.8129371 28.9584448,86.8129371 L118.228313,86.8129371 C131.373781,86.8129371 142.037828,76.1847805 142.037828,63.0676783 C142.036496,49.9392868 131.372449,39.3114623 118.226981,39.3114623 Z" opacity=".805" transform="translate(457.823 173.077)"/>
      </g>
    </g>
    <path fill="#FFF" d="M-103,418.512008 C28.9018595,410.772327 203.506946,414.151512 420.815261,428.649564 C530.582206,435.972831 599.91559,397.432777 704.842865,397.432777 C809.77014,397.432777 844,385.032125 844,492.989996 C844,564.961909 802.437558,595.608782 719.312675,584.930614 L-103,584.930614 L-103,418.512008 Z"/>
  </g>
</svg>
